<svg width="61.781250" height="58.979492" viewBox="0 0 61.7812 58.9795" fill="none" xmlns="http://www.w3.org/2000/svg" xmlns:xlink="http://www.w3.org/1999/xlink">
	<desc>
			Created with Pixso.
	</desc>
	<defs/>
	<mask id="mask1_883" mask-type="alpha" maskUnits="userSpaceOnUse" x="0.000000" y="0.000000" width="61.781250" height="58.979492">
		<g style="mix-blend-mode:normal">
			<path id="Pfad 309" d="M0 58.97L61.78 58.97L61.78 0L0 0L0 58.97Z" fill="#7E7E7E" fill-opacity="1.000000" fill-rule="nonzero"/>
			<path id="Pfad 309" d="M61.78 58.97L61.78 0L0 0L0 58.97L61.78 58.97Z" stroke="#707070" stroke-opacity="0" stroke-width="1.000000"/>
		</g>
	</mask>
	<g mask="url(#mask1_883)">
		<g style="mix-blend-mode:normal">
			<path id="Pfad 301" d="M34.48 3.59C34.48 5.58 32.87 7.19 30.89 7.19C28.9 7.19 27.29 5.58 27.29 3.59C27.29 1.61 28.9 0 30.89 0C32.87 0 34.48 1.61 34.48 3.59Z" fill="#7E7E7E" fill-opacity="1.000000" fill-rule="nonzero"/>
			<path id="Pfad 301" d="M30.89 7.19C28.9 7.19 27.29 5.58 27.29 3.59C27.29 1.61 28.9 0 30.89 0C32.87 0 34.48 1.61 34.48 3.59C34.48 5.58 32.87 7.19 30.89 7.19Z" stroke="#707070" stroke-opacity="0" stroke-width="1.000000"/>
		</g>
	</g>
	<g mask="url(#mask1_883)">
		<g style="mix-blend-mode:normal">
			<path id="Pfad 302" d="M25.16 12.39C25.16 13.96 23.89 15.22 22.33 15.22C20.76 15.22 19.5 13.96 19.5 12.39C19.5 10.83 20.76 9.56 22.33 9.56C23.89 9.56 25.16 10.83 25.16 12.39Z" fill="#7E7E7E" fill-opacity="1.000000" fill-rule="nonzero"/>
			<path id="Pfad 302" d="M22.33 15.22C20.76 15.22 19.5 13.96 19.5 12.39C19.5 10.83 20.76 9.56 22.33 9.56C23.89 9.56 25.16 10.83 25.16 12.39C25.16 13.96 23.89 15.22 22.33 15.22Z" stroke="#707070" stroke-opacity="0" stroke-width="1.000000"/>
		</g>
	</g>
	<g mask="url(#mask1_883)">
		<g style="mix-blend-mode:normal">
			<path id="Pfad 303" d="M42.28 12.39C42.28 13.96 41.01 15.22 39.45 15.22C37.88 15.22 36.62 13.96 36.62 12.39C36.62 10.83 37.88 9.56 39.45 9.56C41.01 9.56 42.28 10.83 42.28 12.39Z" fill="#7E7E7E" fill-opacity="1.000000" fill-rule="nonzero"/>
			<path id="Pfad 303" d="M39.45 15.22C37.88 15.22 36.62 13.96 36.62 12.39C36.62 10.83 37.88 9.56 39.45 9.56C41.01 9.56 42.28 10.83 42.28 12.39C42.28 13.96 41.01 15.22 39.45 15.22Z" stroke="#707070" stroke-opacity="0" stroke-width="1.000000"/>
		</g>
	</g>
	<g mask="url(#mask1_883)">
		<g style="mix-blend-mode:normal">
			<path id="Pfad 304" d="M18.36 19.82C18.36 21.38 17.09 22.65 15.53 22.65C13.97 22.65 12.7 21.38 12.7 19.82C12.7 18.26 13.97 16.99 15.53 16.99C17.09 16.99 18.36 18.26 18.36 19.82Z" fill="#7E7E7E" fill-opacity="1.000000" fill-rule="nonzero"/>
			<path id="Pfad 304" d="M15.53 22.65C13.97 22.65 12.7 21.38 12.7 19.82C12.7 18.26 13.97 16.99 15.53 16.99C17.09 16.99 18.36 18.26 18.36 19.82C18.36 21.38 17.09 22.65 15.53 22.65Z" stroke="#707070" stroke-opacity="0" stroke-width="1.000000"/>
		</g>
	</g>
	<g mask="url(#mask1_883)">
		<g style="mix-blend-mode:normal">
			<path id="Pfad 305" d="M49.08 19.82C49.08 21.38 47.81 22.65 46.25 22.65C44.68 22.65 43.41 21.38 43.41 19.82C43.41 18.26 44.68 16.99 46.25 16.99C47.81 16.99 49.08 18.26 49.08 19.82Z" fill="#7E7E7E" fill-opacity="1.000000" fill-rule="nonzero"/>
			<path id="Pfad 305" d="M46.25 22.65C44.68 22.65 43.41 21.38 43.41 19.82C43.41 18.26 44.68 16.99 46.25 16.99C47.81 16.99 49.08 18.26 49.08 19.82C49.08 21.38 47.81 22.65 46.25 22.65Z" stroke="#707070" stroke-opacity="0" stroke-width="1.000000"/>
		</g>
	</g>
	<g mask="url(#mask1_883)">
		<g style="mix-blend-mode:normal">
			<path id="Pfad 306" d="M0 27.35C17.06 27.35 30.89 41.18 30.89 58.24L30.89 58.98C13.82 58.98 0 45.14 0 28.08L0 27.35Z" fill="#7E7E7E" fill-opacity="1.000000" fill-rule="nonzero"/>
			<path id="Pfad 306" d="M30.89 58.24L30.89 58.98C13.82 58.98 0 45.14 0 28.08L0 27.35C17.06 27.35 30.89 41.18 30.89 58.24Z" stroke="#707070" stroke-opacity="0" stroke-width="1.000000"/>
		</g>
	</g>
	<g mask="url(#mask1_883)">
		<g style="mix-blend-mode:normal">
			<path id="Pfad 307" d="M61.78 27.35L61.78 28.08C61.78 45.14 47.95 58.98 30.89 58.98L30.89 58.24C30.89 41.18 44.72 27.35 61.78 27.35Z" fill="#7E7E7E" fill-opacity="1.000000" fill-rule="nonzero"/>
			<path id="Pfad 307" d="M61.78 28.08C61.78 45.14 47.95 58.98 30.89 58.98L30.89 58.24C30.89 41.18 44.72 27.35 61.78 27.35L61.78 28.08Z" stroke="#707070" stroke-opacity="0" stroke-width="1.000000"/>
		</g>
	</g>
	<g mask="url(#mask1_883)">
		<g style="mix-blend-mode:normal">
			<path id="Pfad 308" d="M30.89 42.14C27.56 35.4 22.13 29.94 15.42 26.6C22.13 23.24 27.56 17.79 30.89 11.05C34.21 17.79 39.64 23.24 46.35 26.6C39.64 29.94 34.21 35.4 30.89 42.14Z" fill="#7E7E7E" fill-opacity="1.000000" fill-rule="nonzero"/>
			<path id="Pfad 308" d="M15.42 26.6C22.13 23.24 27.56 17.79 30.89 11.05C34.21 17.79 39.64 23.24 46.35 26.6C39.64 29.94 34.21 35.4 30.89 42.14C27.56 35.4 22.13 29.94 15.42 26.6Z" stroke="#707070" stroke-opacity="0" stroke-width="1.000000"/>
		</g>
	</g>
</svg>
